<!DOCTYPE svg PUBLIC "-//W3C//DTD SVG 20010904//EN" "http://www.w3.org/TR/2001/REC-SVG-20010904/DTD/svg10.dtd">
<svg version="1.0" xmlns="http://www.w3.org/2000/svg" width="625px" height="625px" viewBox="0 0 625 625" preserveAspectRatio="xMidYMid meet">
 <g id="layer101" fill="#060404" stroke="none">
  <path d="M239 587 c-71.5 -17 -141.5 -73 -172 -137 -50 -104.5 -39.5 -234 25 -317.5 55 -70.5 125.5 -103.5 220.5 -103.5 125.5 -0.5 223 67 263 181 15.5 44 19 130 7.5 175.5 -26.5 103.5 -100.5 178.5 -198.5 202 -39.5 9 -107.5 9 -145.5 -0.5z m-17.5 -59.5 c-57.5 -26.5 -94 -65 -120 -127 -7 -15.5 -11 -21.5 -9 -13 10.5 51 64.5 116 118 142 17.5 8.5 35.5 15 39.5 15 4 0 -8.5 -7.5 -28.5 -17z m38.5 -7.5 c0 -2.5 -4 -5 -8.5 -5 -16 0 -58.5 -28.5 -85 -56.5 -23.5 -24.5 -40 -52 -49 -80.5 -1.5 -5 -4 -8 -5.5 -6.5 -2 1.5 3.5 18 12 36 20 42 60.5 83 102 102.5 36 17 34 16.5 34 10z m-18.5 -39.5 c-39 -18.5 -68.5 -48 -87 -87 -8 -17 -14.5 -27.5 -14.5 -23 0 16.5 26.5 59.5 50.5 82 23.5 22 59 42 74.5 42.5 4 0 -6.5 -6.5 -23.5 -14.5z m38.5 -13 c0 -1 -11 -7 -24 -12.5 -30.5 -13 -62.5 -45 -76 -76.5 -6 -13.5 -12 -23 -13.5 -21.5 -4 4 16.5 43.5 33.5 64 15 18 80 56 80 46.5z m46.5 -123.5 c6 -3 13.5 -9 17 -13.5 21 -27.5 -14.5 -71 -44.5 -55 -31.5 16.5 -32 51 -1.5 68.5 12.5 7.5 16 7.5 29 0z m136 -85 c-6.5 -21.5 -37.5 -64 -56.5 -76 -19.5 -13 -56 -30 -56 -26 0 1.5 10.5 7 24 13 31 13.5 63 45.5 76 76 10.5 24.5 18 32.5 12.5 13z m18 -31 c-18.5 -42.5 -84 -98 -115 -98 -4.5 0 6 6.5 23 15 38.5 18 71 50.5 87 87 6.5 15 12.5 25.5 13.5 23 1 -2.5 -3 -14.5 -8.5 -27z m25.5 -10.5 c-23.5 -50 -69.5 -92 -123.5 -112.5 -8 -3 -12.5 -3 -12.5 0 0 3 4 5 9 5 15.5 0 58 28.5 84.5 56.5 23.5 24.5 40 52 49 80.5 1.5 5 4 8 5.5 6.5 2 -1.5 -3.5 -18 -12 -36z m29 9 c-17 -52.5 -65.5 -106.5 -116.5 -131 -18 -8.5 -35.5 -15.5 -39 -15.5 -4 0 11 9 33 19.5 28.5 14 48.5 28 66.5 47.5 24.5 25.5 56 81 56 97.5 0 4 1.5 6 3 4 1.5 -1.5 0 -11.5 -3 -22z"/>
</g>
 <g id="layer102" fill="#b90404" stroke="none">
  <path d="M272.5 405.5 c-70 -32.5 -83.5 -123.5 -26 -174 43 -38 103.5 -33.5 142 10 34.5 39.5 34.5 97.5 0 137 -30.5 34.5 -76.5 45.5 -116 27z m54 -61.5 c6 -3 13.5 -9 17 -13.5 21 -27.5 -14.5 -71 -44.5 -55 -31.5 16.5 -32 51 -1.5 68.5 12.5 7.5 16 7.5 29 0z"/>
</g>

</svg>